<svg xmlns="http://www.w3.org/2000/svg" width="1200" height="630" viewBox="0 0 1200 630">
  <!-- Background -->
  <rect width="1200" height="630" fill="#f5f5f5" />
  
  <!-- Title -->
  <text x="600" y="50" font-family="Arial, sans-serif" font-size="32" font-weight="bold" fill="#1976d2" text-anchor="middle">YouTube Mood Mixer</text>
  <text x="600" y="80" font-family="Arial, sans-serif" font-size="16" fill="#666" text-anchor="middle">Music that matches your mood - powered by YouTube</text>
  
  <!-- Device Frames -->
  <g transform="translate(50, 110)">
    <!-- Mood Selection Screen (Left) -->
    <rect x="0" y="0" width="340" height="480" rx="8" ry="8" fill="white" stroke="#ddd" stroke-width="2" />
    <text x="170" y="30" font-family="Arial, sans-serif" font-size="18" font-weight="bold" fill="#333" text-anchor="middle">Mood Selection</text>
    
    <!-- Mood Grid -->
    <g>
      <!-- Happy -->
      <rect x="20" y="60" width="140" height="120" rx="8" ry="8" fill="#fff3e0" stroke="#FFD54F" stroke-width="2" />
      <circle cx="90" cy="100" r="30" fill="#FFD54F" />
      <text x="90" cy="100" font-family="Arial, sans-serif" font-size="24" fill="white" text-anchor="middle" dominant-baseline="middle">😊</text>
      <text x="90" y="160" font-family="Arial, sans-serif" font-size="14" font-weight="bold" fill="#333" text-anchor="middle">Happy</text>
      
      <!-- Sad -->
      <rect x="180" y="60" width="140" height="120" rx="8" ry="8" fill="#e3f2fd" stroke="#64B5F6" stroke-width="2" />
      <circle cx="250" cy="100" r="30" fill="#64B5F6" />
      <text x="250" cy="100" font-family="Arial, sans-serif" font-size="24" fill="white" text-anchor="middle" dominant-baseline="middle">😢</text>
      <text x="250" y="160" font-family="Arial, sans-serif" font-size="14" font-weight="bold" fill="#333" text-anchor="middle">Sad</text>
      
      <!-- Energetic -->
      <rect x="20" y="200" width="140" height="120" rx="8" ry="8" fill="#ffebee" stroke="#EF5350" stroke-width="2" />
      <circle cx="90" cy="240" r="30" fill="#EF5350" />
      <text x="90" cy="240" font-family="Arial, sans-serif" font-size="24" fill="white" text-anchor="middle" dominant-baseline="middle">⚡</text>
      <text x="90" y="300" font-family="Arial, sans-serif" font-size="14" font-weight="bold" fill="#333" text-anchor="middle">Energetic</text>
      
      <!-- Calm -->
      <rect x="180" y="200" width="140" height="120" rx="8" ry="8" fill="#e8f5e9" stroke="#66BB6A" stroke-width="2" />
      <circle cx="250" cy="240" r="30" fill="#66BB6A" />
      <text x="250" cy="240" font-family="Arial, sans-serif" font-size="24" fill="white" text-anchor="middle" dominant-baseline="middle">😌</text>
      <text x="250" y="300" font-family="Arial, sans-serif" font-size="14" font-weight="bold" fill="#333" text-anchor="middle">Calm</text>
      
      <!-- Button -->
      <rect x="100" y="360" width="140" height="40" rx="20" ry="20" fill="#1976d2" />
      <text x="170" y="385" font-family="Arial, sans-serif" font-size="14" fill="white" text-anchor="middle">Get Started</text>
    </g>
    
    <!-- Mode Toggle -->
    <circle cx="320" cy="20" r="15" fill="#333" stroke="#ddd" stroke-width="1" />
    <path d="M320,12 A8,8 0 0,1 320,28 A8,8 0 0,1 320,12" fill="white" />
  </g>
  
  <!-- YouTube Player (Middle) -->
  <g transform="translate(430, 110)">
    <rect x="0" y="0" width="340" height="480" rx="8" ry="8" fill="#121212" stroke="#333" stroke-width="2" />
    <text x="170" y="30" font-family="Arial, sans-serif" font-size="18" font-weight="bold" fill="white" text-anchor="middle">YouTube Player</text>
    
    <!-- Video Area -->
    <rect x="20" y="60" width="300" height="180" rx="4" ry="4" fill="#000" />
    <circle cx="170" cy="150" r="30" fill="rgba(255,255,255,0.2)" />
    <polygon points="162,140 162,160 185,150" fill="white" />
    
    <!-- Song Info -->
    <text x="20" y="270" font-family="Arial, sans-serif" font-size="18" font-weight="bold" fill="white">Blinding Lights</text>
    <text x="20" y="295" font-family="Arial, sans-serif" font-size="14" fill="#aaa">The Weeknd</text>
    
    <!-- Progress Bar -->
    <rect x="20" y="320" width="300" height="6" rx="3" ry="3" fill="#333" />
    <rect x="20" y="320" width="120" height="6" rx="3" ry="3" fill="#1976d2" />
    
    <!-- Time -->
    <text x="20" y="350" font-family="Arial, sans-serif" font-size="12" fill="#aaa">1:24</text>
    <text x="300" y="350" font-family="Arial, sans-serif" font-size="12" fill="#aaa" text-anchor="end">3:20</text>
    
    <!-- Controls -->
    <circle cx="110" cy="380" r="20" fill="transparent" stroke="#555" stroke-width="1" />
    <polygon points="105,375 105,385 115,380" fill="#ccc" />
    
    <circle cx="170" cy="380" r="30" fill="#1976d2" />
    <rect x="165" y="370" width="4" height="20" fill="white" />
    <rect x="173" y="370" width="4" height="20" fill="white" />
    
    <circle cx="230" cy="380" r="20" fill="transparent" stroke="#555" stroke-width="1" />
    <polygon points="225,380 235,375 235,385" fill="#ccc" />
    
    <!-- Volume Slider -->
    <line x1="100" y1="430" x2="240" y2="430" stroke="#555" stroke-width="4" stroke-linecap="round" />
    <circle cx="170" cy="430" r="10" fill="#1976d2" />
  </g>
  
  <!-- Dashboard (Right) -->
  <g transform="translate(810, 110)">
    <rect x="0" y="0" width="340" height="480" rx="8" ry="8" fill="white" stroke="#ddd" stroke-width="2" />
    <text x="170" y="30" font-family="Arial, sans-serif" font-size="18" font-weight="bold" fill="#333" text-anchor="middle">Dashboard</text>
    
    <!-- Stats Cards -->
    <g>
      <!-- Total Listens -->
      <rect x="20" y="60" width="140" height="90" rx="8" ry="8" fill="white" stroke="#e0e0e0" stroke-width="2" />
      <circle cx="45" cy="85" r="15" fill="#1976d2" />
      <text x="45" cy="85" font-family="Arial, sans-serif" font-size="14" fill="white" text-anchor="middle" dominant-baseline="middle">♫</text>
      <text x="140" y="85" font-family="Arial, sans-serif" font-size="14" font-weight="bold" fill="#333" text-anchor="end">Total Listens</text>
      <text x="140" y="115" font-family="Arial, sans-serif" font-size="24" font-weight="bold" fill="#333" text-anchor="end">137</text>
      
      <!-- Favorite Mood -->
      <rect x="180" y="60" width="140" height="90" rx="8" ry="8" fill="white" stroke="#e0e0e0" stroke-width="2" />
      <circle cx="205" cy="85" r="15" fill="#e91e63" />
      <text x="205" cy="85" font-family="Arial, sans-serif" font-size="14" fill="white" text-anchor="middle" dominant-baseline="middle">♥</text>
      <text x="300" y="85" font-family="Arial, sans-serif" font-size="14" font-weight="bold" fill="#333" text-anchor="end">Favorite Mood</text>
      <text x="300" y="115" font-family="Arial, sans-serif" font-size="20" font-weight="bold" fill="#333" text-anchor="end">Happy</text>
    </g>
    
    <!-- Pie Chart -->
    <circle cx="90" cy="210" r="50" fill="none" stroke="#e0e0e0" stroke-width="2" />
    <path d="M90,210 L90,160 A50,50 0 0,1 134,235 Z" fill="#1976d2" />
    <path d="M90,210 L134,235 A50,50 0 0,1 65,255 Z" fill="#e91e63" />
    <path d="M90,210 L65,255 A50,50 0 0,1 50,175 Z" fill="#66BB6A" />
    <path d="M90,210 L50,175 A50,50 0 0,1 90,160 Z" fill="#FFD54F" />
    <text x="90" y="285" font-family="Arial, sans-serif" font-size="14" font-weight="bold" fill="#333" text-anchor="middle">Mood Distribution</text>
    
    <!-- Line Chart -->
    <rect x="180" y="170" width="140" height="100" rx="4" ry="4" fill="white" stroke="#e0e0e0" stroke-width="1" />
    <polyline points="190,250 210,225 230,240 250,200 270,210 290,185 310,195" fill="none" stroke="#1976d2" stroke-width="2" />
    <text x="250" y="285" font-family="Arial, sans-serif" font-size="14" font-weight="bold" fill="#333" text-anchor="middle">7-Day Activity</text>
    
    <!-- Recent Activity -->
    <text x="20" y="320" font-family="Arial, sans-serif" font-size="16" font-weight="bold" fill="#333">Recent Activity</text>
    
    <g transform="translate(20, 335)">
      <!-- Activity 1 -->
      <circle cx="15" cy="15" r="15" fill="#FFD54F" />
      <text x="15" cy="15" font-family="Arial, sans-serif" font-size="14" fill="white" text-anchor="middle" dominant-baseline="middle">😊</text>
      <text x="40" y="15" font-family="Arial, sans-serif" font-size="14" font-weight="bold" fill="#333">Blinding Lights</text>
      <text x="40" y="30" font-family="Arial, sans-serif" font-size="12" fill="#666">The Weeknd • Happy mood</text>
      
      <!-- Activity 2 -->
      <circle cx="15" cy="55" r="15" fill="#66BB6A" />
      <text x="15" cy="55" font-family="Arial, sans-serif" font-size="14" fill="white" text-anchor="middle" dominant-baseline="middle">😌</text>
      <text x="40" y="55" font-family="Arial, sans-serif" font-size="14" font-weight="bold" fill="#333">Heat Waves</text>
      <text x="40" y="70" font-family="Arial, sans-serif" font-size="12" fill="#666">Glass Animals • Calm mood</text>
      
      <!-- Activity 3 -->
      <circle cx="15" cy="95" r="15" fill="#EF5350" />
      <text x="15" cy="95" font-family="Arial, sans-serif" font-size="14" fill="white" text-anchor="middle" dominant-baseline="middle">⚡</text>
      <text x="40" y="95" font-family="Arial, sans-serif" font-size="14" font-weight="bold" fill="#333">Save Your Tears</text>
      <text x="40" y="110" font-family="Arial, sans-serif" font-size="12" fill="#666">The Weeknd • Energetic mood</text>
    </g>
  </g>
  
  <!-- App Store Badges -->
  <g transform="translate(600, 600)">
    <text x="0" y="0" font-family="Arial, sans-serif" font-size="14" fill="#666" text-anchor="middle">Start listening today</text>
  </g>
</svg>

